HIERARCHY
ROOT Hips
{
  OFFSET 0 0 0
  CHANNELS 6 Xposition Yposition Zposition Zrotation Xrotation Yrotation
  JOINT Spine
  {
    OFFSET 0 10.1816 0.131521
    CHANNELS 3 Zrotation Xrotation Yrotation
    JOINT Spine1
    {
      OFFSET 0 10.0835 -1.0008
      CHANNELS 3 Zrotation Xrotation Yrotation
      JOINT Spine2
      {
        OFFSET 0 9.10001 -1.37342
        CHANNELS 3 Zrotation Xrotation Yrotation
        JOINT Neck
        {
          OFFSET 0 16.6717 -2.51617
          CHANNELS 3 Zrotation Xrotation Yrotation
          JOINT Head
          {
            OFFSET 0 9.61788 1.68501
            CHANNELS 3 Zrotation Xrotation Yrotation
            End Site
            {
              OFFSET 0 0 0
            }
          }
        }
        JOINT LeftShoulder
        {
          OFFSET 4.57045 10.946 -2.62799
          CHANNELS 3 Zrotation Xrotation Yrotation
          JOINT LeftArm
          {
            OFFSET 10.5924 -0.524583 -2.23212
            CHANNELS 3 Zrotation Xrotation Yrotation
            JOINT LeftForeArm
            {
              OFFSET 27.8415 -8.94286e-05 3.74589e-05
              CHANNELS 3 Zrotation Xrotation Yrotation
              JOINT LeftHand
              {
                OFFSET 28.3288 -1.74407e-05 3.78045e-05
                CHANNELS 3 Zrotation Xrotation Yrotation
                End Site
                {
                  OFFSET 0 0 0
                }
              }
            }
          }
        }
        JOINT RightShoulder
        {
          OFFSET -4.56997 10.9462 -2.62802
          CHANNELS 3 Zrotation Xrotation Yrotation
          JOINT RightArm
          {
            OFFSET -10.5928 -0.524798 -2.2321
            CHANNELS 3 Zrotation Xrotation Yrotation
            JOINT RightForeArm
            {
              OFFSET -27.8415 -3.30792e-05 1.16763e-05
              CHANNELS 3 Zrotation Xrotation Yrotation
              JOINT RightHand
              {
                OFFSET -28.3288 0 5.5816e-05
                CHANNELS 3 Zrotation Xrotation Yrotation
                End Site
                {
                  OFFSET 0 0 0
                }
              }
            }
          }
        }
      }
    }
  }
  JOINT LeftUpLeg
  {
    OFFSET 8.20778 -6.75171 -1.59956
    CHANNELS 3 Zrotation Xrotation Yrotation
    JOINT LeftLeg
    {
      OFFSET 0 -44.3705 0.284643
      CHANNELS 3 Zrotation Xrotation Yrotation
      JOINT LeftFoot
      {
        OFFSET 0 -44.4279 -2.98219
        CHANNELS 3 Zrotation Xrotation Yrotation
        JOINT LeftToeBase
        {
          OFFSET 0 -8.72867 10.7106
          CHANNELS 3 Zrotation Xrotation Yrotation
          End Site
          {
            OFFSET 0 0 0
          }
        }
      }
    }
  }
  JOINT RightUpLeg
  {
    OFFSET -8.2078 -6.75166 -1.59956
    CHANNELS 3 Zrotation Xrotation Yrotation
    JOINT RightLeg
    {
      OFFSET 0 -44.3705 0.286156
      CHANNELS 3 Zrotation Xrotation Yrotation
      JOINT RightFoot
      {
        OFFSET 0 -44.4277 -2.98379
        CHANNELS 3 Zrotation Xrotation Yrotation
        JOINT RightToeBase
        {
          OFFSET 0 -8.72867 10.7106
          CHANNELS 3 Zrotation Xrotation Yrotation
          End Site
          {
            OFFSET 0 0 0
          }
        }
      }
    }
  }
}
MOTION
Frames:	9
Frame Time:	0.0333333
-1.06218 88.2488 0.621536 0.0522363 -5.45316 -46.3231 -1.95698 9.24296 7.55271 -0.916151 2.17162 1.02474 -0.894673 2.18722 1.01704 4.419 1.12137 13.174 -3.91066 7.47952 20.6962 -8.61707 0.572557 3.67365 -67.9227 -32.7083 -45.2099 -0.000152588 1.97618e-15 -106.358 -15.7588 4.04097 -6.87555 -5.23542 1.81436 13.2489 64.7892 12.3416 53.0667 4.51861e-05 4.20284e-06 105.988 8.39647 -5.59458 18.5713 18.4135 -27.9211 17.8669 8.07761 58.2064 -13.188 -14.4914 -21.577 -13.9736 5.79571e-06 -1.59404 -9.57291e-06 -28.3979 -17.7173 -21.5917 -14.375 57.9413 2.41679 22.3158 -24.8466 3.83543 -4.56079e-06 -0.0130071 5.89208e-06 
-0.60515 88.6387 -1.30792 0.247757 -4.13083 -46.5884 -2.71132 9.15862 7.36826 -0.815923 2.33645 0.895317 -0.788553 2.3536 0.901373 4.75432 0.413177 13.06 -2.9994 5.78168 20.7347 -8.15259 0.650047 3.22635 -67.6969 -33.7417 -44.6385 -0.000244141 2.14365e-15 -107.789 -15.7588 4.04097 -6.87555 -5.8599 1.48463 11.9969 65.6947 12.6975 53.2861 -1.64814e-05 8.55143e-06 106.273 7.93412 -6.64487 18.9135 19.972 -29.3604 18.9502 8.86859 56.4464 -13.715 -15.2568 -19.3098 -13.8123 5.04919e-06 -1.59448 -1.43482e-05 -27.7874 -19.6668 -22.2669 -13.597 57.6681 3.55277 22.822 -22.4597 4.17359 9.92383e-06 -4.72744 4.12721e-05 
-0.054667 89.0498 -3.83956 0.384197 -3.3091 -46.858 -3.22085 9.15396 7.11935 -0.913844 2.50411 0.815056 -0.880053 2.52314 0.829957 4.45641 0.0804874 13.1098 -2.44795 5.16454 20.5994 -9.42273 1.21669 1.96421 -67.1464 -35.0692 -43.6356 -0.000230809 -1.06731e-05 -110.471 -15.7588 4.04097 -6.87555 -9.00647 0.0119708 11.2489 68.8846 13.2278 52.4042 1.70452e-05 -1.26633e-05 106.059 7.5609 -6.42326 19.0103 21.6288 -30.308 20.608 9.25847 54.0336 -14.4326 -15.8047 -16.402 -13.4985 2.60958e-06 -1.59493 -7.08563e-06 -27.4623 -21.9035 -22.5643 -12.3218 58.4186 3.29162 22.9263 -19.2582 5.12489 6.43262e-07 -7.94952 2.09264e-05 
0.484673 89.504 -6.45315 0.454315 -3.20705 -46.6816 -3.50267 9.31296 6.96356 -1.19844 2.64196 0.786609 -1.15846 2.6627 0.806846 3.84476 0.0602358 13.1898 -2.46576 5.59096 20.3045 -10.8863 1.69975 1.20696 -66.9935 -35.0294 -42.5078 -0.000227705 5.87733e-06 -112.655 -15.7588 4.04097 -6.87555 -11.7276 -1.25569 11.105 71.0689 12.738 51.0958 -2.87756e-05 -1.25078e-05 105.857 7.33429 -5.637 19.0772 22.0172 -30.6805 21.1591 9.82638 50.9784 -14.8432 -16.6493 -13.2239 -13.1532 2.85975e-06 -1.59539 -1.20074e-05 -27.7743 -23.5173 -22.7328 -11.5195 60.2099 2.52175 20.9141 -15.6292 4.3289 1.21628 -7.37912 0.14152 
0.91402 89.8221 -8.94105 0.48755 -3.42269 -46.2393 -3.5799 9.52765 7.1042 -1.51667 2.8179 0.847149 -1.47113 2.83898 0.872071 3.269 0.194353 13.1877 -2.76 6.57092 19.7869 -11.9636 2.01611 0.815808 -67.4468 -33.856 -41.6687 -0.000212255 6.31474e-06 -114.446 -15.7588 4.04097 -6.87555 -12.5978 -1.69311 11.4984 70.9528 11.1469 50.5223 -1.40357e-05 -8.55322e-06 106.276 7.07307 -4.89376 19.2063 21.6292 -30.8485 20.768 10.614 47.8868 -14.9525 -17.81 -10.2052 -12.8138 -8.38713e-07 -1.59584 -1.46381e-07 -29.0932 -22.952 -23.2544 -14.441 61.6581 4.13931 19.0963 -13.7417 2.24056 1.61269 -4.51472 0.100749 
1.03955 89.7732 -10.9165 0.428634 -3.8165 -45.6345 -3.52133 9.60421 7.43222 -1.69234 3.08659 1.01043 -1.64176 3.10574 1.04266 2.89209 0.290759 13.0814 -2.80653 7.51364 19.095 -12.5073 2.21758 0.488799 -68.2075 -32.6542 -41.3224 -0.000216847 -1.36515e-05 -116.573 -15.7588 4.04097 -6.87555 -12.1668 -1.55727 12.3981 69.6425 8.90706 50.4038 1.38332e-05 9.21852e-06 107.582 6.53805 -4.4348 19.251 21.2332 -30.9959 20.1678 11.4213 45.8241 -15.2845 -18.9118 -8.07599 -12.5566 5.91546e-06 -1.59628 1.7054e-05 -32.0584 -19.7197 -22.9084 -16.0129 62.3173 4.83222 17.4262 -12.2873 -0.993909 -3.30464e-06 -1.36303 -9.40224e-06 
0.801711 89.3561 -12.979 0.34952 -4.5235 -45.0845 -3.48864 9.60683 7.8919 -1.66023 3.3461 1.21768 -1.6053 3.36134 1.26187 2.62593 0.263291 12.9342 -2.45323 8.22175 18.4172 -12.6289 2.30088 0.282296 -68.8839 -31.8566 -41.3493 -0.000200167 -7.19423e-06 -118.13 -15.7588 4.04097 -6.87555 -11.5473 -1.37146 13.9225 68.5068 6.77358 50.6645 2.87721e-05 1.01728e-05 109.472 5.85995 -4.30387 18.8488 21.1562 -30.9879 19.7089 11.9524 44.3891 -15.7286 -20.0867 -6.35693 -12.3355 -5.27803e-06 -1.59674 4.6598e-06 -35.723 -14.8763 -21.7489 -15.7308 61.8712 4.26716 14.5469 -9.66319 -5.03225 1.37482e-05 -0.603147 3.30473e-06 
0.348854 88.5231 -14.9985 0.301511 -5.98236 -44.5108 -3.65553 10.0091 8.47897 -1.45188 3.40019 1.38068 -1.39489 3.38335 1.44163 2.35658 0.171128 12.7728 -2.01533 8.86821 17.8749 -12.5215 2.22085 0.444061 -69.3737 -31.179 -41.293 -0.000198364 -3.39337e-15 -118.922 -15.7588 4.04097 -6.87555 -10.9292 -1.17099 15.5853 67.8275 5.34203 50.8456 1.7323e-05 -1.1033e-05 111.194 5.52963 -4.31834 17.9774 20.7745 -30.7755 19.1386 12.4736 43.781 -16.4044 -21.3021 -5.12089 -12.1727 1.59803e-06 -1.59719 7.32592e-06 -38.8618 -8.90571 -20.3082 -18.029 59.2815 6.17637 13.096 -5.78694 -7.77143 -2.25566e-06 -1.55419 3.69941e-06 
-0.218714 87.2568 -17.5981 0.358166 -8.5713 -43.9152 -4.35196 11.1102 9.32129 -1.12389 3.17079 1.47581 -1.06924 2.95783 1.55562 2.09785 0.127741 12.5097 -1.81022 9.64638 17.2875 -12.4516 2.02303 0.995928 -69.8298 -30.5023 -42.1655 -0.000215326 -7.00458e-06 -117.326 -15.7588 4.04097 -6.87555 -9.97278 -0.711248 16.5399 67.4007 5.0035 52.2339 1.30411e-05 1.14211e-05 111.978 5.87705 -4.22695 17.1723 19.6261 -30.0663 18.2131 13.1317 43.1573 -17.1068 -22.8785 -3.77095 -11.9775 -7.62039e-08 -1.59764 -4.93015e-06 -43.1515 -1.3404 -17.6924 -16.9093 54.841 5.82304 11.9337 -0.758923 -8.48401 -7.69271e-06 -3.73415 7.81889e-06 
